<svg width="50" height="69" viewBox="0 0 50 69" fill="none" xmlns="http://www.w3.org/2000/svg">
<path d="M22.3905 0.422417C21.1532 5.34352 21.246 5.11119 19.6375 7.04374C17.565 9.52541 16.4515 10.6554 15.7503 10.9722C15.1626 11.2256 13.6572 12.25 13.0386 12.7885L12.7293 13.0631L13.2242 12.9998C13.4923 12.9681 14.2037 12.7674 14.8121 12.5668C15.4101 12.3661 15.9256 12.2077 15.9462 12.2289C15.9669 12.25 15.74 12.6196 15.4513 13.042C14.8533 13.9079 14.8636 13.9396 15.771 14.0663C17.0907 14.2459 17.73 14.0663 17.73 13.4961C17.73 13.1582 18.328 12.514 18.9776 12.1444L19.5138 11.8487L19.4416 12.1549C19.4107 12.3239 19.3488 12.8097 19.3179 13.2215L19.2457 13.9924L17.8434 15.3969C15.3482 17.8892 14.4306 18.6178 13.2654 19.0191C12.853 19.1564 11.9044 19.5894 11.1517 19.9696L9.77007 20.656L9.36795 21.5536C9.14111 22.0499 8.98645 22.4935 9.01738 22.5568C9.11018 22.7047 9.66696 22.673 10.0278 22.4829C10.2134 22.3879 10.6259 22.0394 10.9558 21.712L11.5538 21.1206L10.9867 22.1239C10.6671 22.673 10.4093 23.1588 10.4093 23.201C10.4093 23.2855 10.8115 23.1588 11.2033 22.9476C11.327 22.8842 11.6363 22.5568 11.8941 22.2189C12.1622 21.8704 12.4096 21.5959 12.4715 21.5959C12.5231 21.5959 12.5746 21.8599 12.5746 22.1767C12.5746 22.4935 12.6055 22.7575 12.6571 22.7575C12.9046 22.7575 13.5232 22.1555 13.8119 21.6275C13.9975 21.2896 14.1625 20.9939 14.1831 20.9728C14.1934 20.9517 14.3378 21.0362 14.4924 21.1629C14.6471 21.279 14.8121 21.3846 14.8636 21.3846C14.9255 21.3846 15.2967 21.1206 15.6885 20.8038C16.668 20.0224 16.7196 20.0752 16.1937 21.3002C16.039 21.6803 15.9153 21.8176 15.6988 21.8704C14.5646 22.1555 13.781 22.8314 12.0281 25.0174C11.0383 26.2741 9.64634 27.4779 7.6048 28.8508C7.04801 29.231 6.59434 29.5689 6.59434 29.6111C6.59434 29.9068 7.33672 30.0441 7.85226 29.8435C7.9863 29.7907 8.4709 29.4105 8.92458 28.9986C9.38857 28.5868 9.79069 28.2489 9.83193 28.2489C9.86286 28.2489 9.74944 28.4706 9.58447 28.7452C9.27515 29.2415 9.18235 29.7273 9.38857 29.7273C9.55354 29.7273 10.1413 29.0726 10.564 28.4389C10.8011 28.0693 11.1311 27.7631 11.7085 27.404C12.1519 27.1189 12.5334 26.9077 12.5437 26.9183C12.5643 26.9288 12.4818 27.2245 12.3684 27.5624C12.255 27.9004 12.1622 28.3439 12.1622 28.5551L12.1725 28.9353L12.5127 28.534C12.7086 28.3122 13.0386 27.8053 13.2448 27.3935C13.4923 26.9183 13.7191 26.612 13.9253 26.5064C14.2656 26.3163 14.2759 26.3374 14.08 27.045C13.7397 28.2277 13.9253 28.7557 14.3687 27.8792L14.5852 27.4568L14.6368 28.0693C14.6677 28.3967 14.7089 28.6818 14.7399 28.6924C14.7708 28.7029 14.8945 28.6818 15.0183 28.6501C15.307 28.5762 15.5647 28.0376 16.1318 26.3797C16.7299 24.6267 17.1217 24.1726 16.8948 25.4926C16.7917 26.0417 16.802 26.179 16.9361 26.3269C17.0186 26.4219 17.1114 26.6014 17.132 26.7176C17.1732 26.8866 17.2145 26.8443 17.3588 26.5064C17.4619 26.2741 17.6578 25.9256 17.8022 25.7355C17.9981 25.4715 18.0393 25.3131 17.9878 25.0808C17.8744 24.5316 17.9981 24.7323 18.2971 25.556C18.4518 25.9889 18.6167 26.348 18.6683 26.348C18.7611 26.348 19.0292 25.4609 19.1014 24.9224C19.122 24.7428 19.1529 24.9224 19.1632 25.3131C19.1632 25.7038 19.122 26.1474 19.0601 26.3163C19.0086 26.4747 18.6271 26.9605 18.2146 27.3829C17.5341 28.0904 17.2557 28.27 14.7089 29.6956C13.1933 30.5404 11.9663 31.248 11.9766 31.2691C11.9972 31.2902 12.7086 31.079 13.5541 30.815C14.4099 30.551 15.1936 30.3081 15.2967 30.2764C15.4616 30.2342 15.4307 30.3081 15.142 30.6777C14.4202 31.6176 14.1831 31.7971 13.1726 32.135C12.6468 32.3146 11.7601 32.5575 11.2136 32.6631C10.2753 32.8637 10.0897 32.9482 8.32655 34.0042C7.28516 34.6273 6.16128 35.3454 5.82103 35.5883C5.17144 36.0635 4.56311 36.6654 4.64559 36.7393C4.67653 36.771 5.20238 36.6021 5.82103 36.3697C6.71807 36.0212 7.17174 35.7784 8.00692 35.1553C8.58432 34.7223 9.07924 34.3738 9.12049 34.3738C9.16173 34.3738 9.17204 34.5639 9.15142 34.7962C9.1308 35.0286 9.14111 35.2187 9.18235 35.2187C9.22359 35.2187 9.69789 34.9547 10.2547 34.6378C10.8011 34.321 11.2651 34.057 11.2858 34.057C11.3064 34.057 11.2136 34.2577 11.0795 34.5006C10.5124 35.5144 10.9146 35.884 11.6982 35.0814C12.1003 34.659 12.7293 34.2788 12.8324 34.3844C12.853 34.4161 12.8427 34.754 12.8014 35.1553C12.7293 35.8734 12.719 35.884 12.3684 36.0107C11.9766 36.148 11.6879 36.5493 11.5848 37.0984C11.5023 37.5419 11.4095 37.5947 10.6156 37.6053C9.90411 37.6159 8.75961 37.901 8.3678 38.1544C8.16158 38.2917 8.11003 38.2917 8.02754 38.165C7.95536 38.0488 7.92443 38.0594 7.87288 38.2495C7.83163 38.3973 7.512 38.6613 7.00677 38.9676C6.5634 39.2316 6.14066 39.5273 6.06849 39.6118C5.99631 39.7068 5.74885 39.8758 5.52201 39.9919C4.97554 40.2665 3.62482 41.3225 3.50109 41.5654C3.33612 41.8717 3.37736 42.0829 3.6042 42.0829C3.71762 42.0829 3.81042 42.1145 3.81042 42.1568C3.81042 42.2096 3.37736 42.7693 2.85151 43.424C1.87199 44.6279 1.27396 45.5889 1.38738 45.779C1.58328 46.1063 2.38753 45.6945 2.88244 45.0186L3.19177 44.5751V44.9975C3.19177 45.5255 3.42892 45.779 3.92384 45.779C4.3672 45.779 4.98585 45.2721 5.42921 44.5645C5.58388 44.3005 5.8004 44.0893 5.8932 44.0893C5.99631 44.0893 6.09942 43.9837 6.14066 43.8253C6.19222 43.593 6.67682 43.0861 6.75931 43.1706C6.76962 43.1811 6.75931 43.4029 6.72838 43.6564C6.67682 44.0471 6.54278 44.2372 5.8004 45.0398C5.06834 45.8318 4.78994 46.043 4.05788 46.4126C3.32581 46.7717 3.15053 46.9089 3.0268 47.2046C2.94431 47.4053 2.88244 47.6165 2.88244 47.6798C2.88244 47.8699 3.19177 47.7854 3.44954 47.5214C3.74855 47.2257 3.76917 47.2574 3.55265 47.6798C3.34643 48.0917 3.5114 48.0811 3.90321 47.6482C4.20223 47.3313 4.22285 47.3208 4.22285 47.5531C4.22285 47.7538 4.25378 47.7749 4.41876 47.6904C4.52186 47.627 4.64559 47.4581 4.67653 47.2997C4.73839 47.0779 4.76932 47.0462 4.90336 47.1624C5.02709 47.268 5.10958 47.2363 5.35704 46.9934C5.55295 46.8033 5.66636 46.7505 5.65605 46.8456C5.64574 47.1624 5.49108 47.3736 5.15082 47.5531C4.94461 47.6587 4.52186 48.1022 4.14036 48.5986C3.77949 49.0738 3.15053 49.7602 2.72778 50.1193C2.30504 50.4783 1.9854 50.8057 2.01634 50.8585C2.11944 51.0275 2.35659 50.9535 2.70716 50.6367L3.05773 50.3199L3.01649 50.6156L2.97524 50.9007L3.16084 50.6684C3.26394 50.5417 3.42892 50.3199 3.53203 50.1721C3.63513 50.0242 3.81042 49.8447 3.93415 49.7813C4.14036 49.6652 4.14036 49.6863 4.0785 50.0665C4.01663 50.4678 4.01663 50.4783 4.19192 50.2566C4.29503 50.1298 4.46 49.8764 4.56311 49.6863C4.78994 49.2639 4.87243 49.3167 4.73839 49.7919C4.63528 50.1615 4.68684 50.3622 4.83119 50.1193C4.89305 50.0242 4.9343 50.0453 4.97554 50.2143C5.06834 50.5734 5.21269 50.3833 5.46015 49.6018C5.6973 48.8837 5.95507 48.4296 5.83134 48.9682C5.8004 49.116 5.8004 49.3272 5.83134 49.4223C5.88289 49.5596 5.94476 49.5173 6.10973 49.2428L6.32626 48.8943L6.38812 49.1583C6.4603 49.4328 6.52216 49.3589 6.62527 48.8943C6.6562 48.7675 6.67682 48.8204 6.68713 49.021C6.69744 49.5068 6.17159 50.077 4.96523 50.8479C4.41876 51.1964 3.99601 51.4816 4.02694 51.4816C4.05788 51.4816 4.35689 51.3865 4.68684 51.2703L5.27455 51.0591L5.1302 51.2915C4.88274 51.6611 4.52186 51.8828 3.88259 52.0518C3.14021 52.2525 1.23271 53.5197 1.23271 53.8259C1.23271 53.9632 1.96478 53.5831 2.44939 53.1923C2.75871 52.9389 2.88244 52.8861 2.88244 53.0022C2.88244 53.224 2.98555 53.2134 3.29488 52.96C3.62482 52.696 3.73824 52.696 3.6042 52.96C3.4083 53.3296 3.6042 53.4247 3.92384 53.1078C4.08881 52.9494 4.24347 52.8438 4.2744 52.8755C4.37751 52.9706 4.20223 53.4986 4.05788 53.5619C3.9857 53.5831 3.8929 53.752 3.86197 53.921C3.80011 54.1744 3.74855 54.2272 3.47016 54.2272C3.03711 54.2272 2.4597 54.544 1.54204 55.2727C0.964634 55.7268 0.779039 55.938 0.78935 56.107C0.809972 56.2337 0.634688 56.6033 0.40785 56.9307C-0.00458257 57.5326 -0.0973799 57.8177 0.0985255 57.8177C0.16039 57.8177 0.28412 57.7333 0.387228 57.6277C0.552201 57.4481 0.572823 57.4481 0.717174 57.6382C0.933701 57.9128 1.15023 57.7861 1.59359 57.1208C2.09882 56.371 2.15038 56.3499 2.02665 56.9307C1.94416 57.3108 1.94416 57.427 2.04727 57.5009C2.15038 57.5643 2.11944 57.6699 1.91323 57.9867C1.76888 58.2085 1.64515 58.4514 1.64515 58.5253C1.64515 58.7365 1.92354 58.6837 2.08851 58.4514L2.23286 58.2296L2.29473 58.4514C2.3669 58.7471 2.72778 58.7154 2.95462 58.3986C3.05773 58.2507 3.27426 57.955 3.42892 57.7333L3.71762 57.3531L3.64544 57.9128C3.58358 58.3774 3.6042 58.4725 3.71762 58.4302C3.80011 58.4091 3.93415 58.1557 4.01663 57.8811C4.15067 57.4587 4.24347 57.3425 4.64559 57.1313L5.11989 56.8884L4.92399 57.2686C4.71777 57.691 4.68684 58.0501 4.83119 58.3352C4.90336 58.4619 4.81057 58.8738 4.52186 59.7503C4.29503 60.4261 4.11974 61.1126 4.14036 61.2815L4.18161 61.5667L4.34658 61.197C4.51155 60.8274 4.51155 60.8274 4.52186 61.1126C4.53217 61.2815 4.57342 61.4083 4.62497 61.4083C4.78994 61.4083 4.92399 61.1442 5.14051 60.3839C5.26424 59.9615 5.38797 59.613 5.4189 59.613C5.43953 59.613 5.43953 59.9192 5.39828 60.2994C5.3158 61.0598 5.50139 61.2921 5.6045 60.5634C5.63543 60.3311 5.6973 59.9615 5.72823 59.7397C5.76947 59.4229 6.26439 58.6626 6.41905 58.6626C6.43967 58.6626 6.41905 58.9055 6.37781 59.2117C6.32626 59.518 6.30563 59.782 6.33657 59.8031C6.35719 59.8242 6.47061 59.4968 6.59434 59.0744C6.99646 57.7016 7.0377 57.6593 7.12019 58.5042C7.20267 59.2751 7.04801 62.0419 6.70776 66.002C6.59434 67.2903 6.55309 68.2302 6.60465 68.2513C6.6562 68.2725 6.69744 68.3464 6.69744 68.4097C6.69744 68.4942 6.93459 68.547 7.34703 68.5681C7.90381 68.5893 8.03785 68.5576 8.275 68.3569L8.53277 68.1141L8.31624 66.4772C8.14096 65.136 8.09972 64.3335 8.09972 61.9891C8.11003 59.1906 8.1822 57.8072 8.33686 57.9867C8.37811 58.0395 8.49153 58.4514 8.59463 58.8949C8.69774 59.349 8.81116 59.7397 8.86272 59.7714C8.90396 59.7925 9.01738 59.6658 9.09986 59.4863L9.25453 59.1589L9.3267 59.6447C9.4195 60.2783 9.58447 60.3945 9.58447 59.8242C9.58447 59.2751 9.72882 59.3595 9.88349 59.9826C10.0381 60.5951 10.2444 60.6162 10.1516 60.0037C10.0588 59.349 10.2547 59.7397 10.4093 60.5106C10.4815 60.8591 10.5846 61.2604 10.6465 61.4083C10.7496 61.6723 10.7599 61.6723 10.8218 61.3026L10.8939 60.933L11.028 61.2498C11.2548 61.7673 11.2651 61.3238 11.0486 60.3205C10.9455 59.8136 10.8939 59.349 10.9455 59.2751C10.9867 59.2011 11.028 59.0322 11.028 58.8949C11.028 58.4619 11.2136 58.6626 11.4404 59.349C11.6776 60.0882 11.8116 60.2044 11.9147 59.7397C12.0178 59.2645 12.0488 59.1906 12.1622 59.1906C12.2137 59.1906 12.2653 59.2751 12.2653 59.3912C12.2653 59.708 12.4818 60.2466 12.5849 60.1833C12.6365 60.1516 12.6777 60.0037 12.6777 59.8453L12.688 59.5602L12.8427 59.8453C12.9252 60.0143 13.0386 60.141 13.1005 60.141C13.2139 60.141 13.1314 59.7503 12.9149 59.2011C12.6571 58.5781 12.853 58.6942 13.5541 59.5813C13.7088 59.7714 13.9666 60.0248 14.1315 60.1516C14.5749 60.4684 14.5234 60.1727 14.0181 59.518C13.5541 58.916 13.5335 58.8738 13.7913 58.8738C13.8841 58.8738 14.08 59.0639 14.2243 59.2962C14.4821 59.7186 14.9152 60.1093 15.0183 59.9932C15.1523 59.8559 14.7914 59.2011 14.3481 58.7682C14.08 58.5042 13.6882 58.0606 13.4716 57.7861C13.1623 57.4059 12.9664 57.258 12.6055 57.1524C12.2344 57.0574 12.1003 56.9518 11.9456 56.635C11.8425 56.4238 11.6673 56.2231 11.5641 56.1915C11.461 56.1598 11.3167 55.9591 11.2445 55.7585C11.1723 55.5367 11.0486 55.3889 10.9455 55.3889C10.729 55.3889 10.2031 54.9031 10.2031 54.7024C10.2031 54.618 10.0691 54.4807 9.8938 54.3856C9.55354 54.2061 9.49168 53.9738 9.74944 53.8682C10.1103 53.7309 10.2753 53.8365 10.7393 54.4912C11.0074 54.8714 11.2754 55.1777 11.3373 55.1777C11.3889 55.1777 11.4404 54.977 11.4404 54.7341C11.4404 54.3223 11.4507 54.3012 11.6054 54.4596C11.6982 54.5546 11.9353 54.9031 12.1312 55.241L12.4818 55.8641L12.4406 55.41C12.3993 55.0932 12.4199 54.9876 12.5024 55.0404C13.2551 55.4945 13.3892 55.6106 13.451 55.938C13.5748 56.5611 13.616 56.6561 13.781 56.6561C13.915 56.6561 13.9356 56.5716 13.8738 56.1703C13.8016 55.5895 13.9047 55.6318 14.3068 56.3815C14.6161 56.9307 14.8636 57.1419 15.0595 57.0152C15.1111 56.9835 15.1523 56.8884 15.1523 56.7934C15.1523 56.6667 15.2245 56.6983 15.4101 56.9096C15.5544 57.068 15.7091 57.163 15.771 57.1313C15.905 57.0468 15.7297 56.6139 15.2348 55.8641C14.9976 55.5156 14.8224 55.1354 14.8224 55.0087C14.843 54.7341 14.4821 54.3328 14.2243 54.3328C13.9872 54.3328 13.9563 54.1956 14.1625 54.0266C14.245 53.9632 14.3584 53.7626 14.4306 53.5936C14.5337 53.3296 14.5852 53.2979 14.7502 53.393C14.9049 53.4775 14.9461 53.4563 14.9461 53.2979C14.9461 53.1923 14.8945 53.055 14.8327 52.9917C14.7502 52.9072 14.7811 52.6854 14.9461 52.1469C15.307 51.0591 16.1009 49.2428 16.039 49.6863C15.6575 52.2102 15.5957 52.865 15.7297 53.2134C15.9359 53.7626 16.2143 53.0656 16.4412 51.4816C16.6886 49.6969 16.7608 49.5385 17.7197 48.5458C18.1734 48.0811 18.5549 47.7538 18.5549 47.8171C18.5549 47.891 18.4827 48.3663 18.4002 48.8943C18.2146 50.0137 18.194 50.679 18.3487 50.4044C18.4105 50.3094 18.7095 49.454 19.0292 48.5035C19.6788 46.5816 20.0809 45.6734 20.1943 45.874C20.2459 45.9479 20.2562 46.5921 20.2252 47.3208C20.1737 48.5986 20.2149 48.7887 20.4933 48.5035C20.6686 48.324 20.6583 48.9893 20.4211 51.2281C20.0396 54.7764 19.8953 56.7089 19.854 58.821C19.8231 59.9826 19.6994 62.1686 19.586 63.6787C19.2869 67.4488 19.2869 67.4593 19.5447 67.8184C19.7303 68.0824 20.5346 68.5998 21.2151 68.9061C21.7512 69.1384 22.5967 68.9166 22.7308 68.4942C22.7617 68.3886 22.9988 68.2197 23.2566 68.1141C23.7309 67.9345 23.7309 67.924 23.669 67.5332C23.6381 67.3115 23.4731 66.0231 23.2979 64.6714C22.6483 59.4652 22.5349 57.3848 22.7617 54.7552C22.8339 53.9738 22.8854 52.6115 22.8854 51.7456C22.8854 50.3727 23.236 46.1275 23.3597 46.0007C23.4938 45.8529 23.7206 46.4337 24.1227 47.9438C24.3599 48.8732 24.6589 49.8658 24.7723 50.1404C24.9785 50.6578 25.1847 50.7423 25.2363 50.3305C25.2569 50.2038 25.3394 50.0665 25.4116 50.0453C25.4941 50.0137 25.6384 49.7391 25.7312 49.4434L25.9168 48.8943L26.0508 49.3695C26.1333 49.6335 26.1746 49.9609 26.1436 50.1087C26.123 50.2566 26.1539 50.4466 26.2261 50.5311C26.2983 50.6156 26.4117 50.9007 26.4839 51.1542C26.6489 51.7561 26.8035 51.5555 26.8035 50.7318C26.8035 50.3833 26.8654 50.0665 26.9582 49.9397C27.1025 49.7497 27.1025 49.7497 27.1129 49.982C27.1129 50.1404 27.185 50.2566 27.3191 50.2882C27.4737 50.3305 27.5768 50.5417 27.7418 51.1014C27.9583 51.8512 28.0924 52.1152 28.2574 52.1152C28.4326 52.1152 28.4636 51.6505 28.3502 50.7318C28.2883 50.1932 28.2574 49.7391 28.2883 49.718C28.3089 49.6863 28.4945 50.1826 28.6904 50.8057C28.9585 51.64 29.0204 51.9884 28.9482 52.1046C28.8863 52.1997 28.5873 52.4742 28.2883 52.7277C27.6799 53.224 27.4737 53.4986 27.3706 53.9315C27.2057 54.5968 28.0305 54.0899 28.6595 53.1395C28.9276 52.7277 29.1441 52.6432 29.2369 52.9072C29.2781 53.0022 29.1235 53.2874 28.8451 53.6253C27.9377 54.7024 27.9996 54.9981 28.9585 54.2272L29.4843 53.8048L29.6287 54.1639C29.7834 54.5546 30.0205 54.7552 30.0824 54.5652C30.103 54.4912 30.1855 54.4384 30.2577 54.4384C30.3401 54.4384 30.4536 54.3434 30.5154 54.2272C30.6392 53.9949 30.8247 53.9421 30.8247 54.1428C30.8247 54.2167 30.866 54.3434 30.9175 54.4279C31.0722 54.6813 31.3197 54.3856 31.3918 53.8682C31.4331 53.6147 31.5053 53.3507 31.5465 53.2768C31.7012 53.0234 32.062 53.4563 32.062 53.8682C32.062 54.5863 32.4126 54.3328 32.7322 53.3824C33.021 52.5165 33.289 52.1574 33.2993 52.6115C33.3097 52.7171 33.3715 52.9917 33.454 53.2134C33.588 53.5936 33.5777 53.7098 33.3406 54.5863C32.9694 56.033 33.0416 56.7934 33.4437 55.6529L33.5984 55.2305V55.7268C33.6087 56.2443 33.7221 56.4238 33.8974 56.202C33.9489 56.1387 34.1242 55.579 34.2789 54.9665C34.6294 53.5936 34.7532 53.3402 34.6707 54.185C34.5882 55.0826 34.7635 55.1249 35.0625 54.2589C35.3821 53.3613 35.5677 53.2768 35.5677 54.0266C35.5677 54.7341 35.7121 54.6074 35.8977 53.752L36.042 53.1184L36.2895 53.6253C36.4235 53.8999 36.5679 54.0899 36.6194 54.0371C36.6607 53.9949 36.8463 53.4035 37.0319 52.7171C37.2174 52.0412 37.403 51.4816 37.434 51.4816C37.568 51.4816 37.6299 51.999 37.7536 54.0688C37.9186 56.8884 37.898 61.0281 37.7021 63.9427C37.6093 65.2416 37.5577 66.3399 37.5886 66.3716C37.6196 66.4033 38.0217 66.4244 38.4857 66.4244C39.3312 66.4244 40.022 66.2026 40.1354 65.9175C40.156 65.8436 40.0529 64.5024 39.888 62.9395C39.723 61.366 39.5477 59.2117 39.4858 58.1346C39.4343 57.0574 39.3105 55.5578 39.2281 54.8081C39.0528 53.1712 39.0425 52.8227 39.1765 52.9072C39.2384 52.9494 39.2796 52.7171 39.2796 52.2841C39.2796 51.6294 39.3724 51.4287 39.5477 51.7139C39.5889 51.7772 39.7952 52.3369 40.0117 52.9494C40.4035 54.0688 40.5066 54.0583 40.321 52.9178L40.2385 52.4003L40.7747 52.9706C41.2593 53.488 41.3212 53.6042 41.383 54.1744C41.4861 55.0193 41.6408 55.6001 41.7542 55.6001C41.8779 55.6001 41.8779 54.6602 41.7542 54.016C41.713 53.752 41.682 53.5303 41.7027 53.5091C41.7233 53.488 41.8779 53.8682 42.0532 54.354C42.7234 56.1809 43.0121 56.5399 43.1565 55.7479L43.2287 55.3677L43.4142 55.8007C43.6102 56.2654 43.8164 56.371 43.8164 56.0119C43.8164 55.7162 43.2699 54.0794 42.8265 53.0656C42.5275 52.3686 42.5069 52.2525 42.6409 52.1046C42.9606 51.7456 42.7337 50.6262 42.2594 50.2671C41.9914 50.0665 42.0429 50.077 42.8884 50.4466C43.6926 50.7951 43.6926 50.7951 43.8679 51.4287C43.9607 51.735 44.0948 52.0518 44.1772 52.1152C44.5278 52.4109 44.6412 51.8723 44.3938 51.1331C44.3113 50.9113 44.2804 50.7423 44.3216 50.7635C44.3628 50.7846 44.7134 51.1647 45.0949 51.6083C45.4661 52.0518 45.8682 52.4531 45.992 52.4848C46.2497 52.5693 46.4972 52.3686 46.4972 52.0835C46.4972 51.8828 46.5281 51.8934 46.8374 52.1997C47.188 52.5481 47.5283 52.6432 47.5283 52.3897C47.5283 52.1785 46.7137 51.0908 46.1054 50.4889L45.5795 49.9714L45.8476 49.8236C45.992 49.7497 46.126 49.6863 46.1363 49.6863C46.1569 49.6863 46.2497 49.9397 46.3322 50.2566C46.4972 50.8374 46.7137 51.1225 46.9096 51.0063C47.054 50.9113 47.0437 50.5311 46.8581 50.0137C46.7756 49.7813 46.7446 49.5807 46.7859 49.5913C46.8271 49.5913 47.1365 49.9292 47.4767 50.341C48.25 51.2703 48.4665 51.4287 48.7552 51.2703C48.879 51.207 48.9718 51.0591 48.9718 50.943C48.9718 50.7423 49.0027 50.7529 49.3327 51.0486C49.5389 51.2281 49.7657 51.3759 49.8482 51.3759C50.1884 51.3759 50.0029 51.038 48.8171 49.5173C48.6418 49.2956 48.6418 49.2428 48.7656 49.1583C48.9821 49.021 48.5903 48.6303 47.4767 47.8699C46.1775 46.9934 45.5795 46.7188 44.8578 46.6555C44.435 46.6132 44.2288 46.5499 44.2288 46.4548C44.2288 46.1592 43.9813 45.7895 43.7545 45.7367C43.5483 45.6839 43.507 45.5995 43.507 45.251C43.507 45.0186 43.5483 44.8286 43.6102 44.8286C43.6617 44.8286 43.8679 44.9658 44.0535 45.1454C44.2494 45.3143 44.466 45.4622 44.5278 45.4622C44.6928 45.4622 44.6619 45.1242 44.466 44.8286C44.301 44.5857 44.3216 44.5857 44.8784 44.913C45.5692 45.3143 45.5692 45.3143 45.5692 45.0398C45.5692 44.9236 45.5898 44.8286 45.6208 44.8286C45.6517 44.8286 45.9404 45.0186 46.2497 45.2615C46.559 45.4939 47.1261 45.8001 47.5076 45.9479L48.1985 46.212L47.8582 45.8529C47.6623 45.6523 46.9199 45.1348 46.2085 44.6913C45.198 44.0893 44.7443 43.8781 44.2288 43.7725C43.3833 43.6141 43.2699 43.5508 43.0018 43.0861C42.7647 42.6637 42.7956 42.6531 43.4039 42.8749C43.6514 42.9594 43.8679 43.0227 43.8885 43.0016C43.8989 42.9805 43.5895 42.7799 43.1874 42.5475C42.5688 42.2096 42.3419 41.9878 41.8161 41.2908C41.2387 40.5094 41.1871 40.4038 41.1871 39.8758C41.1665 39.1682 41.3005 39.3161 41.7027 40.4777C41.8573 40.9212 42.0326 41.3542 42.0842 41.4176C42.2801 41.671 42.476 41.5654 42.4863 41.2064C42.4863 40.8896 42.4966 40.879 42.5997 41.1008C42.8472 41.6182 42.9709 41.2803 42.7956 40.6255C42.6306 40.0447 42.9193 40.2137 43.3214 40.9318C43.4761 41.1958 43.6823 41.4809 43.7751 41.5654C43.971 41.7238 43.971 41.7872 43.7442 40.8262L43.6823 40.5727L44.1154 40.8262C44.3525 40.9635 44.7134 41.3014 44.9093 41.576C45.3114 42.1674 45.6826 42.3046 45.4145 41.7661C45.1774 41.3014 45.2186 41.3014 45.827 41.8189C46.3941 42.2835 46.8168 42.4208 46.9715 42.1674C47.0127 42.0934 46.9715 41.9984 46.8581 41.935C46.0332 41.4387 44.4041 40.0553 43.9195 39.4217C43.1462 38.429 42.5688 37.901 42.0945 37.7531C41.7851 37.6581 41.6717 37.5419 41.5274 37.2146C41.3212 36.7077 41.4552 36.6865 41.9501 37.1195C42.2801 37.4046 42.3316 37.4258 42.5378 37.2779C42.7544 37.1406 42.775 37.1512 42.8884 37.4469C43.0121 37.732 43.4349 38.1756 43.6102 38.1756C43.6411 38.1756 43.6617 38.0383 43.6308 37.8587C43.5689 37.4469 43.7442 37.4574 44.0226 37.8587C44.2288 38.165 44.8475 38.5874 44.8475 38.429C44.8475 38.3868 44.7237 38.1333 44.5691 37.8693L44.2907 37.3835L44.6825 37.7215C44.9299 37.9538 45.1671 38.0699 45.363 38.0699C45.7239 38.0699 45.7342 38.0488 45.4352 37.4363C45.2496 37.0562 45.0949 36.9083 44.5381 36.6232C44.1669 36.4331 43.6102 36.1796 43.3111 36.0529C42.5584 35.7678 42.0017 35.3243 40.8159 34.0887C39.8467 33.0855 39.8158 33.0327 39.7745 32.4941L39.723 31.945L39.9911 32.1139C40.4447 32.4096 40.7231 32.7159 40.7231 32.906C40.7231 33.1805 40.8984 33.2544 41.5377 33.2333C42.2801 33.2122 42.3729 33.1066 42.0223 32.6314C41.8573 32.4202 41.7542 32.2301 41.7645 32.209C41.7851 32.1984 42.0842 32.2723 42.4244 32.3779C42.7647 32.4835 43.1359 32.5786 43.2493 32.5786C43.4246 32.568 43.3936 32.5258 43.0946 32.2618C42.8987 32.0928 42.4141 31.776 42.0326 31.5542C41.5377 31.2797 41.1149 30.9101 40.5788 30.3081C38.8672 28.3756 38.7125 28.0904 38.2485 26.1474C37.9908 25.0808 37.9392 25.0702 37.7021 26.0312C37.6299 26.3269 37.5268 26.5592 37.4649 26.5592C37.4134 26.5486 37.1453 26.4008 36.8566 26.2213L36.341 25.8939L36.6504 25.7883C38.0217 25.3342 36.5988 24.4577 34.9697 24.7639C34.4129 24.859 34.3098 24.8484 34.0108 24.6689C33.4746 24.3521 31.8661 23.7396 30.3195 23.2855C29.3503 23.0004 28.8554 22.7997 28.6698 22.6096C28.5151 22.4512 28.3398 22.3351 28.2677 22.3351C28.1955 22.3351 28.1439 22.2295 28.1439 22.0922C28.1439 21.8176 27.6696 21.015 27.3397 20.7088C26.9994 20.4131 27.0613 20.3286 27.6078 20.3286C28.3089 20.3286 28.7317 20.4765 29.2678 20.9306C30.1649 21.6909 30.1545 21.6909 29.7524 20.8672C29.4534 20.2653 29.3915 20.0646 29.4947 19.9484C29.7009 19.6844 29.8658 19.7795 30.5876 20.6032C31.0619 21.1523 31.4537 21.4902 31.8043 21.6592C32.0827 21.7965 32.3301 21.8915 32.3507 21.8704C32.3714 21.8493 32.1755 21.3952 31.9177 20.8672C31.6496 20.3392 31.4846 19.9062 31.5362 19.9062C31.8558 19.9062 32.5673 20.2969 33.021 20.7088C33.7427 21.3741 34.4335 21.6803 34.4335 21.3318C34.4335 21.1523 33.9902 20.3814 33.8149 20.2758C33.7633 20.2441 33.7118 20.1596 33.7118 20.1068C33.7118 20.0435 33.918 20.1702 34.1655 20.3814C34.681 20.8038 35.114 20.8989 35.2893 20.6243C35.3924 20.4659 35.2584 20.2758 34.351 19.3465L33.289 18.2588L31.5671 17.7413C29.5359 17.1394 28.8451 16.7909 26.6695 15.3019C24.8651 14.0558 24.3289 13.6017 24.3289 13.2743C24.3289 13.042 24.2464 13.042 25.7931 13.2426L26.3808 13.3271L26.6901 12.5773C26.8551 12.1655 27.0304 11.817 27.0819 11.8064C27.1335 11.7853 27.3912 12.1127 27.6593 12.5351C28.412 13.739 28.4533 13.7918 28.8348 13.9607C29.4637 14.2248 29.505 14.1403 29.175 13.1159C29.0204 12.609 28.9069 12.1972 28.9379 12.1972C28.9688 12.1972 29.34 12.4929 29.7834 12.8519C30.5257 13.4644 31.2269 13.8763 31.5259 13.8868C31.6084 13.8868 31.4125 13.57 31.0928 13.1793C30.7732 12.7885 30.536 12.4612 30.5567 12.4295C30.5773 12.4084 30.9485 12.4717 31.3815 12.5562C32.392 12.778 33.0931 12.778 33.0931 12.5668C33.0931 12.3556 32.7941 12.2183 32.3714 12.2289C31.8661 12.2394 31.33 11.9437 30.5567 11.2362C29.6802 10.423 29.2472 10.1379 28.5461 9.9267C27.814 9.7155 26.9376 9.17692 25.8859 8.28985C25.2054 7.70903 24.9888 7.45559 24.5558 6.653C23.6278 4.94223 23.3907 4.24525 23.2979 3.00969C23.2154 1.97478 22.9473 0.897629 22.6277 0.264008L22.4936 0L22.3905 0.422417ZM28.8554 25.8094C29.01 25.9256 29.2884 26.3058 29.474 26.6542C29.6596 27.0133 29.8246 27.2984 29.8452 27.2984C29.8658 27.2984 30.0514 26.9922 30.2577 26.612C30.4639 26.2318 30.6804 25.9045 30.7319 25.8728C30.7835 25.8305 31.031 25.9573 31.2887 26.1368C31.7115 26.4325 31.7527 26.5064 31.7527 26.876C31.7527 27.2773 32.0208 27.7208 32.2476 27.7208C32.4126 27.7208 32.6807 27.3407 32.7426 27.0027C32.7838 26.8126 32.8354 26.6648 32.8766 26.6648C32.9075 26.6648 33.0313 26.8866 33.1344 27.1717C33.2478 27.4463 33.4334 27.8792 33.5468 28.1432L33.7633 28.6185L33.8149 27.5624L33.8664 26.5064L34.2582 27.1506C34.4645 27.5096 34.6397 27.8687 34.6397 27.9637C34.6397 28.1221 35.2996 28.7769 35.4543 28.7769C35.5059 28.7769 35.4337 28.3333 35.2996 27.7948C35.1656 27.2667 35.0522 26.781 35.0522 26.7282C35.0522 26.6754 35.4234 26.9922 35.877 27.4463C36.7328 28.3017 37.0009 28.4073 37.1247 27.932C37.1762 27.7103 37.1968 27.6997 37.2587 27.8476C37.3824 28.1221 36.6504 29.4527 36.1451 29.8646C35.9183 30.0547 35.6605 30.2553 35.5987 30.2976C35.5265 30.3398 34.8047 30.1075 34.0005 29.7907C33.1859 29.4739 31.8661 29.0092 31.0619 28.7663C29.7627 28.365 29.5874 28.2911 29.5874 28.0904C29.5874 27.573 28.6389 26.443 28.0202 26.2213C27.5047 26.0312 27.7418 25.4398 28.278 25.5454C28.4429 25.5771 28.7007 25.7038 28.8554 25.8094ZM34.2273 32.6208C34.2273 32.6525 34.1861 32.7898 34.1242 32.9376C34.0417 33.1805 34.052 33.2122 34.2273 33.2122C34.3407 33.2122 34.5263 33.1172 34.6397 33.001C34.9284 32.7053 35.1965 32.8637 35.3924 33.4762C35.5574 33.9409 35.5471 33.9514 35.2893 34.1626C35.0419 34.3633 35.0006 34.3633 34.8047 34.2154C34.681 34.1204 34.4645 33.9725 34.3098 33.8669C34.1655 33.7719 34.0108 33.5713 33.9799 33.4128C33.9489 33.2544 33.8974 33.0116 33.8561 32.8531C33.8046 32.6208 33.8252 32.5786 34.0108 32.5786C34.1345 32.5786 34.2273 32.5997 34.2273 32.6208ZM28.7935 36.6232C28.8244 36.6971 29.2678 37.3096 29.7834 37.996C30.2989 38.6719 30.7216 39.2316 30.7216 39.2527C30.7216 39.2738 30.6082 39.2949 30.4639 39.2949C29.7215 39.3477 29.4534 39.6223 29.9071 39.8758C30.1236 39.9919 30.1133 39.9919 29.804 40.1926C29.3709 40.4566 29.3297 40.446 29.1647 40.0447C29.0925 39.8652 28.876 39.559 28.6904 39.3794C28.5048 39.1999 28.3502 38.9465 28.3502 38.8303C28.3502 38.429 28.2264 38.2812 27.515 37.8904C27.0922 37.6581 26.8035 37.4258 26.8035 37.3307C26.8035 37.0034 27.0613 36.8133 27.6799 36.6549C28.4842 36.4648 28.7317 36.4542 28.7935 36.6232ZM32.4848 38.2495C32.8663 38.693 32.8147 38.7669 32.0105 38.9781C31.7837 39.0415 31.7527 39.0098 31.7527 38.7247C31.7527 38.5452 31.794 38.2812 31.8558 38.1227C31.9383 37.901 31.9899 37.8693 32.1445 37.9538C32.2373 38.0066 32.392 38.1333 32.4848 38.2495ZM35.0109 39.8863C35.0934 40.013 34.7944 40.2876 34.5676 40.2876C34.4335 40.2876 34.382 39.9497 34.5057 39.8335C34.6088 39.7174 34.9284 39.749 35.0109 39.8863ZM33.5777 40.3404C33.6808 40.5622 33.8149 40.6995 33.9077 40.6889C34.0005 40.6678 34.0727 40.7206 34.0623 40.7839C34.052 40.8579 34.0417 41.0163 34.0417 41.1219C34.0211 41.2908 33.8046 41.3964 32.9694 41.6605C31.8455 42.0195 31.4022 42.0195 31.0928 41.671C30.9382 41.4915 30.9382 41.4492 31.2062 40.9318L31.4949 40.3827L31.5465 40.9424L31.6084 41.5021L31.794 41.0796C32.0414 40.5199 32.0517 40.5199 32.2683 40.8156C32.4229 41.0268 32.4745 41.048 32.6188 40.9318C32.7116 40.8579 32.7838 40.6678 32.7838 40.5199C32.7838 40.2559 33.0313 39.9814 33.2787 39.9708C33.3509 39.9708 33.4849 40.1398 33.5777 40.3404ZM30.7732 40.9107C30.701 41.2592 30.6495 41.2908 30.4123 41.1324C30.2886 41.0585 30.2989 40.9952 30.5051 40.7734C30.8041 40.446 30.866 40.4777 30.7732 40.9107ZM15.2967 43.7197C15.2554 43.8042 15.1729 43.8781 15.1008 43.8781C14.7605 43.8781 14.2965 44.7863 14.1315 45.7579C13.9769 46.666 14.1006 47.0673 14.6161 47.3313C14.6368 47.3313 14.4821 47.7432 14.2759 48.229C14.0594 48.7042 13.8531 49.2111 13.8016 49.3484C13.7088 49.5807 13.7088 49.5913 13.4613 49.4012C13.2448 49.2322 13.2345 49.2005 13.3892 49.0844C13.6469 48.8943 13.3789 48.7042 12.8118 48.6725C12.5231 48.6619 11.956 48.493 11.4507 48.2818C10.9764 48.0706 10.5021 47.8805 10.3887 47.8594C10.2856 47.8277 10.1309 47.6376 10.0485 47.437C9.96597 47.2257 9.85255 47.0357 9.79069 46.9934C9.73913 46.9617 9.68758 46.8773 9.68758 46.8245C9.68758 46.666 10.2341 46.835 10.5021 47.0885L10.7393 47.3102L10.6671 47.0462C10.5537 46.6555 10.5537 46.6449 10.6671 46.6238C10.729 46.6027 10.8424 46.7505 10.9352 46.9512C11.1105 47.3102 11.6466 47.5848 11.6466 47.3102C11.6466 47.2363 11.7085 47.1201 11.791 47.0568C11.8941 46.9617 11.956 46.9723 12.0591 47.099C12.255 47.3419 12.5024 47.3102 12.3684 47.0568C12.2137 46.74 12.2447 46.6766 12.4612 46.8773C12.8014 47.1941 12.8118 46.8667 12.4715 46.4232C12.1725 46.043 12.1519 45.9902 12.255 45.5889C12.4199 44.9658 12.6365 44.7757 13.5541 44.4061C14.0078 44.2266 14.5852 43.9626 14.843 43.8253C15.1008 43.688 15.3173 43.5719 15.3276 43.5613C15.3379 43.5613 15.3276 43.6352 15.2967 43.7197ZM11.3682 45.0926C11.2136 45.5783 11.1723 45.6206 10.8733 45.5044C10.729 45.441 10.7702 45.3671 11.0899 45.0292C11.3064 44.7969 11.492 44.6173 11.5023 44.6173C11.5229 44.6173 11.461 44.8286 11.3682 45.0926ZM31.165 48.3979C31.1031 48.757 31.1134 48.7781 31.2784 48.6408C31.4846 48.4613 31.4743 48.4402 31.7424 49.2005C31.9486 49.7602 31.9486 49.8447 31.8146 50.0559C31.7115 50.2143 31.4743 50.341 31.1134 50.4255C30.8144 50.4994 30.5464 50.5628 30.5154 50.5522C30.4845 50.5522 30.4123 50.3622 30.3504 50.1404C30.2577 49.7919 30.268 49.6652 30.4845 49.2111C30.6082 48.926 30.7216 48.5986 30.7216 48.5035C30.7216 48.4085 30.7732 48.1973 30.8247 48.0494C30.9072 47.8171 30.9588 47.7854 31.0722 47.891C31.1753 47.9755 31.2062 48.1339 31.165 48.3979ZM10.5331 49.454L10.698 49.813L10.863 49.4857C11.0177 49.2005 11.0589 49.1794 11.2342 49.285C11.3476 49.3589 11.4404 49.5279 11.4404 49.6546C11.4404 49.9397 11.626 50.077 11.7085 49.8553C11.8013 49.6018 11.9456 49.6546 12.0178 49.9503C12.1106 50.3199 12.2962 50.2777 12.2447 49.8975C12.1828 49.454 12.3065 49.5068 12.5024 50.0031C12.5849 50.2354 12.7086 50.4255 12.7705 50.4255C12.8324 50.4255 12.8633 50.3622 12.8427 50.2882C12.8118 50.2249 12.7705 50.0137 12.7293 49.8447L12.6674 49.5279L13.0283 49.9081L13.3995 50.2882L13.2345 50.774L13.0798 51.2492L12.3375 50.9007C11.925 50.7106 11.3992 50.4889 11.1517 50.415C10.8115 50.3199 10.6774 50.2038 10.5434 49.9292C10.4506 49.7285 10.265 49.4962 10.1413 49.4012C9.83193 49.2005 9.82162 49.0316 10.1309 49.0738C10.265 49.0949 10.43 49.2428 10.5331 49.454ZM12.6262 52.2208C12.6571 52.2841 12.6571 52.4214 12.6262 52.5481C12.5746 52.7065 12.5231 52.7277 12.4199 52.6432C12.1931 52.4425 12.1519 52.1152 12.3684 52.1152C12.4818 52.1152 12.5952 52.168 12.6262 52.2208ZM13.4201 53.0339C13.3995 53.2874 13.3376 53.4669 13.2861 53.4352C13.2448 53.4035 13.2242 53.319 13.2448 53.2451C13.2654 53.1712 13.3067 52.9811 13.3479 52.8122C13.4407 52.3897 13.482 52.5059 13.4201 53.0339ZM30.4123 53.4669C30.3401 53.6042 30.3195 53.5514 30.3195 53.224C30.3195 52.8544 30.3298 52.8333 30.4226 53.0445C30.4845 53.2029 30.4742 53.3613 30.4123 53.4669ZM2.76903 56.6455C2.87213 56.7195 2.83089 56.8145 2.59374 57.0891L2.28442 57.4481L2.39784 56.994C2.52157 56.5294 2.54219 56.4977 2.76903 56.6455Z" fill="#FFF9C0"/>
</svg>
